<svg height="512" viewBox="0 0 410 512" width="410" xmlns="http://www.w3.org/2000/svg"><g fill="#ffcd00" transform="translate(.067476)"><path d="m204.932524 512c-4.330207 0-7.844579-3.514372-7.844579-7.844579v-496.31084173c0-4.33020776 3.514372-7.84457927 7.844579-7.84457927 4.330208 0 7.84458 3.51437151 7.84458 7.84457927v496.31084173c0 4.330207-3.514372 7.844579-7.84458 7.844579z"/><path d="m204.901146 512c-2.086658 0-4.079181-.831525-5.553962-2.290617l-196.63222414-196.694981c-3.05938592-3.059386-3.05938592-8.032849 0-11.092235 3.05938591-3.059386 8.03284914-3.059386 11.09223514 0l191.078262 191.141019 191.156708-191.141019c3.059386-3.059386 8.032849-3.059386 11.092235 0s3.059386 8.032849 0 11.092235l-196.694981 196.679292c-1.474781 1.474781-3.451615 2.306306-5.538273 2.306306z"/></g></svg>