<svg id="SvgjsSvg1001" width="288" height="288" xmlns="http://www.w3.org/2000/svg" version="1.1" xmlns:xlink="http://www.w3.org/1999/xlink" xmlns:svgjs="http://svgjs.com/svgjs"><defs id="SvgjsDefs1002"></defs><g id="SvgjsG1008" transform="matrix(0.9167,0,0,0.9167,11.978305744171138,11.995200000000011)"><svg xmlns="http://www.w3.org/2000/svg" enable-background="new 0 0 14.9 71" viewBox="0 0 14.9 71" width="288" height="288"><path fill="#ffbf66" d="M12.4,62.4L9,65.8V1.5C8.9,0.7,8.3,0,7.4,0S5.9,0.7,5.9,1.5v64.4l-3.4-3.4c-0.6-0.6-1.5-0.6-2.1,0	s-0.6,1.5,0,2.1l6,6c0.1,0.1,0.3,0.3,0.5,0.3l0,0C7.1,71,7.4,71,7.4,71s0.4,0,0.5-0.1l0,0c0.2-0.1,0.3-0.2,0.5-0.3l6-6
	c0.6-0.6,0.6-1.5,0-2.1S13,61.9,12.4,62.4z" class="color00e5ea svgShape"></path></svg></g></svg>